<?xml version="1.0" encoding="UTF-8"?>
<svg id="Layer_1" xmlns="http://www.w3.org/2000/svg" version="1.1" viewBox="0 0 284.14 235.15">
  <!-- Generator: Adobe Illustrator 30.4.0, SVG Export Plug-In . SVG Version: 2.1.4 Build 226)  -->
  <g>
    <path d="M124.62,153.82l-59.56-59.8c-6.67-6.7-5.3-17.8.97-23.92,6.43-6.28,17.46-6.84,24.22-.13l29.43,29.23c.75-5.79,4.58-10.68,9.02-12.93,5.96-3.03,12.06-2.5,17.79.68.5-5.98,4.24-10.9,8.68-13.31,5.97-3.25,12.37-2.87,18.18.49.67-6.52,4.86-11.97,10.3-14.12,6.23-2.47,13.91-1.96,18.74,2.88l48.29,48.33c25.04,25.06,22.92,66.86-3.29,90.27-20.14,22.99-53.71,28.12-80.04,12.39l-51.45-26.58c-7.61-3.93-11.33-11.81-9.34-20.07,1.88-7.84,8.79-13.28,18.06-13.4ZM148.14,137.59l-63.37-63.19c-4.27-4.26-11.72-2.33-14.8,1.6-3.51,4.46-3.06,10.22,1.1,14.38l70.8,70.78c1.54,1.54,1.88,3.42.9,4.9-.83,1.26-3.03,1.97-4.42,1.22l-8.86-4.72c-5.35-2.85-11.58-1.98-14.96,3.36-2.63,4.16-2.2,11.59,3.15,14.37l52.5,27.27c23.57,14.45,53.76,9.95,72.1-10.63,23.13-20.53,25.85-56.93,4.27-79.78l-48.77-49.04c-4.15-4.17-11.1-3.25-14.68.48-3.69,3.84-4.21,10.35-.24,14.34l18.95,19.05c1.32,1.33.87,3.83-.32,4.91-1,.91-3.4,1.16-4.6-.04l-26.34-26.11c-4.04-4.01-10.84-2.9-14.32.71-3.5,3.63-4.33,10.15-.49,14.02l22.97,23.15c1.03,1.04.34,3.86-.57,4.61-.81.67-3.45,1.13-4.32.27l-30.13-29.91c-4.02-4-10.87-2.87-14.34.69-3.5,3.59-4.31,10.24-.51,14.06l24.46,24.54c1.56,1.56,1.42,4.01.02,5.18-1.56,1.3-3.41,1.33-5.19-.45Z" fill="#fff"/>
    <g>
      <path d="M51.34,53.14c1.21,1.21.73,3.73,0,4.66-.94,1.22-3.79,1.85-5.04.61l-14.35-14.27c-1.6-1.59-1.79-3.75-.5-5.26s3.86-1.81,5.43-.24l14.44,14.49Z" fill="#005bea"/>
      <path d="M37.41,87.56l-21.42.12c-1.81,0-3.44-1.88-3.51-3.39-.08-1.92,1.41-3.88,3.59-3.88l19.9-.05c1.93,0,3.52,1.35,3.91,2.84.32,1.23-.47,4.36-2.47,4.37Z" fill="#005bea"/>
      <path d="M36,129.88c-1.48,1.48-3.92.96-5.08-.36-1-1.14-1.2-3.61.1-4.9l14.69-14.6c1.33-1.32,3.98-.74,4.9.36,1.38,1.67,1.16,3.76-.41,5.33l-14.19,14.16Z" fill="#005bea"/>
      <path d="M80.98,43.46c0,2.34-1.56,3.78-3.37,3.96-1.55.16-3.91-1.13-3.9-3.12l.07-21.58c0-2.1,2.92-3.02,4.38-2.58,1.86.55,2.82,2.08,2.82,4.24l-.02,19.07Z" fill="#005bea"/>
      <path d="M109.25,57.75c-1.83,1.83-3.85,2.62-5.74.92-1.73-1.56-1.48-3.9.2-5.57l13.45-13.4c1.58-1.57,3.75-2.4,5.76-.45,1.24,1.21,1.2,3.66-.38,5.24l-13.27,13.26Z" fill="#005bea"/>
      <path d="M80.25,144.4c0,2.53-1.28,4.22-3.27,4.45-1.81.21-3.97-1.44-3.97-3.54l-.03-19.95c0-2.22,1.39-3.82,3.48-3.91,2.05-.09,3.75,1.58,3.75,3.99l.04,18.96Z" fill="#005bea"/>
    </g>
  </g>
  <path d="M148.14,137.59c1.79,1.78,3.64,1.76,5.19.45,1.4-1.17,1.54-3.61-.02-5.18l-24.46-24.54c-3.81-3.82-3-10.47.51-14.06,3.47-3.56,10.32-4.69,14.34-.69l30.13,29.91c.87.86,3.51.4,4.32-.27.91-.75,1.6-3.58.57-4.61l-22.97-23.15c-3.84-3.87-3.01-10.4.49-14.02,3.48-3.61,10.28-4.72,14.32-.71l26.34,26.11c1.21,1.2,3.6.95,4.6.04,1.19-1.08,1.65-3.58.32-4.91l-18.95-19.05c-3.98-4-3.45-10.5.24-14.34,3.57-3.72,10.53-4.65,14.68-.48l48.77,49.04c21.58,22.85,18.86,59.25-4.27,79.78-18.35,20.58-48.54,25.08-72.1,10.63l-52.5-27.27c-5.36-2.78-5.78-10.22-3.15-14.37,3.37-5.34,9.6-6.21,14.96-3.36l8.86,4.72c1.39.74,3.59.04,4.42-1.22.98-1.48.64-3.36-.9-4.9l-70.8-70.78c-4.16-4.16-4.61-9.93-1.1-14.38,3.09-3.92,10.53-5.86,14.8-1.6l63.37,63.19Z" fill="#005bea"/>
</svg>